<?xml version="1.0" standalone="no"?>
<!DOCTYPE svg PUBLIC "-//W3C//DTD SVG 20010904//EN"
 "http://www.w3.org/TR/2001/REC-SVG-20010904/DTD/svg10.dtd">
<svg version="1.0" xmlns="http://www.w3.org/2000/svg"
 width="180.000000pt" height="180.000000pt" viewBox="0 0 180.000000 180.000000"
 preserveAspectRatio="xMidYMid meet">
<metadata>
Created by potrace 1.11, written by Peter Selinger 2001-2013
</metadata>
<g transform="translate(0.000000,180.000000) scale(0.100000,-0.100000)"
fill="#000000" stroke="none">
<path d="M0 900 l0 -900 900 0 900 0 0 900 0 900 -900 0 -900 0 0 -900z m542
238 c4 -395 5 -416 27 -488 30 -99 91 -222 151 -301 35 -47 45 -67 38 -77 -8
-9 -28 -3 -90 30 -212 113 -349 280 -378 458 -5 36 -10 228 -10 428 l0 362
129 0 130 0 3 -412z m978 24 c0 -316 -3 -399 -15 -447 -44 -169 -180 -317
-382 -418 -58 -30 -73 -34 -82 -23 -8 10 -7 17 5 27 28 23 94 127 135 212 71
148 79 203 79 509 l0 268 -115 0 -115 0 0 130 0 130 245 0 245 0 0 -388z
m-594 -134 l20 -63 67 -3 c37 -2 67 -6 67 -10 0 -4 -23 -22 -50 -41 -28 -18
-50 -37 -50 -41 0 -4 9 -33 20 -65 11 -32 18 -60 15 -63 -2 -2 -23 10 -47 29
-24 18 -48 36 -54 40 -6 5 -35 -9 -67 -32 -31 -22 -57 -36 -57 -31 0 5 9 35
20 67 11 32 17 61 12 64 -4 3 -30 22 -57 41 l-50 35 71 3 72 3 18 64 c10 36
21 65 24 65 4 0 15 -28 26 -62z"/>
</g>
</svg>
